Coordinates
version=1
nRows=19
nColumns=63
inDegrees=yes

Units are S.I. units (second, meters, Newtons, ...)
If the header above contains a line with 'inDegrees', this indicates whether rotational values are in degrees (yes) or radians (no).

endheader
time	pelvis_tilt	pelvis_list	pelvis_rotation	pelvis_tx	pelvis_ty	pelvis_tz	hip_flexion_r	hip_adduction_r	hip_rotation_r	knee_angle_r	knee_angle_r_beta	ankle_angle_r	subtalar_angle_r	mtp_angle_r	hip_flexion_l	hip_adduction_l	hip_rotation_l	knee_angle_l	knee_angle_l_beta	ankle_angle_l	subtalar_angle_l	mtp_angle_l	L5_S1_Flex_Ext	L5_S1_Lat_Bending	L5_S1_axial_rotation	L4_L5_Flex_Ext	L4_L5_Lat_Bending	L4_L5_axial_rotation	L3_L4_Flex_Ext	L3_L4_Lat_Bending	L3_L4_axial_rotation	L2_L3_Flex_Ext	L2_L3_Lat_Bending	L2_L3_axial_rotation	L1_L2_Flex_Ext	L1_L2_Lat_Bending	L1_L2_axial_rotation	L1_T12_Flex_Ext	L1_T12_Lat_Bending	L1_T12_axial_rotation	Abs_r3	Abs_r2	Abs_r1	Abs_t1	Abs_t2	neck_flexion	neck_bending	neck_rotation	arm_flex_r	arm_add_r	arm_rot_r	elbow_flex_r	pro_sup_r	wrist_flex_r	wrist_dev_r	arm_flex_l	arm_add_l	arm_rot_l	elbow_flex_l	pro_sup_l	wrist_flex_l	wrist_dev_l
0.000000	0.601459	-6.820458	99.242014	0.166569	0.970900	0.413740	-7.259480	0.459058	-10.998593	4.467930	0.077980	23.152080	6.967139	0.000000	-4.162051	-2.670224	-7.695585	6.753750	0.117875	30.499762	17.199188	0.000000	-0.081225	0.181914	-0.938628	-0.150843	0.241946	-0.997293	-0.133444	0.442306	-0.997293	-0.092832	0.442306	-0.821300	-0.075425	0.370959	-0.762635	-0.046412	0.281785	-0.703971	-0.580181	2.057849	-5.220369	0.000000	0.000000	14.709552	-2.570339	6.425270	19.511302	-9.179874	50.938219	36.183591	88.330427	-2.227195	3.916123	19.626095	-11.797406	42.909482	53.222769	88.661676	-7.773804	7.767771
0.018182	0.391182	-7.002194	99.110465	0.166517	0.971044	0.414853	-7.453983	0.269486	-7.401344	3.424985	0.059777	21.881375	2.565215	0.000000	-4.020596	-2.277540	-5.416940	6.606355	0.115303	30.076259	13.978769	0.000000	-0.078395	0.152102	-0.951647	-0.145588	0.202295	-1.011125	-0.128795	0.369820	-1.011125	-0.089598	0.369820	-0.832691	-0.072798	0.310165	-0.773213	-0.044795	0.235605	-0.713735	-0.559969	1.720603	-5.292775	0.000000	0.000000	14.817061	-2.455181	6.179828	19.932813	-8.949822	51.582007	35.687742	88.323851	-2.187590	3.760546	19.550699	-11.492059	41.963637	52.899188	88.721714	-9.011955	6.672079
0.036364	0.204332	-7.105998	98.836472	0.166724	0.971299	0.415625	-7.607979	0.080668	-4.461905	2.667394	0.046555	20.887444	-0.864946	0.000000	-4.021126	-1.917427	-3.410262	6.358336	0.110974	29.575087	10.925183	0.000000	-0.078632	0.126692	-0.934544	-0.146028	0.168500	-0.992953	-0.129185	0.308038	-0.992953	-0.089869	0.308038	-0.817726	-0.073018	0.258349	-0.759317	-0.044931	0.196245	-0.700908	-0.561664	1.433160	-5.197656	0.000000	0.000000	14.794188	-2.379678	6.002567	20.287571	-8.828295	52.185360	35.360968	88.351311	-2.243207	3.570871	19.531491	-11.278979	41.459760	52.619024	88.783334	-9.926402	5.596875
0.054545	0.039689	-7.140603	98.434848	0.167164	0.971648	0.416092	-7.724154	-0.106529	-2.122843	2.167759	0.037835	20.146139	-3.408144	0.000000	-4.147048	-1.588213	-1.661884	6.024227	0.105143	29.010710	8.040604	0.000000	-0.081484	0.105336	-0.890221	-0.151324	0.140097	-0.945859	-0.133870	0.256113	-0.945859	-0.093128	0.256113	-0.778943	-0.075666	0.214801	-0.723304	-0.046560	0.163165	-0.667666	-0.582031	1.191579	-4.951140	0.000000	0.000000	14.656577	-2.337610	5.884753	20.573338	-8.803205	52.734610	35.196407	88.405914	-2.371048	3.351174	19.563836	-11.147908	41.355206	52.382457	88.845667	-10.542801	4.546976
0.072727	-0.103966	-7.114745	97.920405	0.167813	0.972073	0.416285	-7.805189	-0.291237	-0.326724	1.898679	0.033138	19.633310	-5.149181	0.000000	-4.381770	-1.288229	-0.158137	5.618565	0.098062	28.397593	5.327210	0.000000	-0.086497	0.087686	-0.821576	-0.160633	0.116622	-0.872925	-0.142105	0.213200	-0.872925	-0.098857	0.213200	-0.718879	-0.080321	0.178809	-0.667531	-0.049424	0.135826	-0.616182	-0.617837	0.991921	-4.569359	0.000000	0.000000	14.419872	-2.322758	5.817652	20.787878	-8.862466	53.216091	35.187195	88.480770	-2.548113	3.105530	19.643097	-11.088589	41.607331	52.189669	88.907840	-10.886806	3.527201
0.090909	-0.227851	-7.037159	97.307959	0.168643	0.972559	0.416240	-7.853769	-0.472590	0.983885	1.832755	0.031988	19.324808	-6.172857	0.000000	-4.708699	-1.015802	1.114644	5.155885	0.089987	27.750201	2.787175	0.000000	-0.093218	0.073394	-0.731511	-0.173115	0.097613	-0.777230	-0.153148	0.178449	-0.777230	-0.106539	0.178449	-0.640072	-0.086562	0.149664	-0.594352	-0.053265	0.113687	-0.548633	-0.665846	0.830243	-4.068443	0.000000	0.000000	14.099716	-2.328902	5.792531	20.928953	-8.993990	53.616136	35.326470	88.568987	-2.751404	2.838013	19.764638	-11.090764	42.173492	52.040841	88.968985	-10.984074	2.542366
0.109091	-0.333188	-6.916581	96.612322	0.169631	0.973088	0.415989	-7.872577	-0.649721	1.866417	1.942588	0.033905	19.196485	-6.563973	0.000000	-5.111244	-0.769263	2.170129	4.650725	0.081170	27.083000	0.422677	0.000000	-0.101195	0.062110	-0.622925	-0.187929	0.082607	-0.661858	-0.166253	0.151015	-0.661858	-0.115656	0.151015	-0.545059	-0.093970	0.126655	-0.506126	-0.057823	0.096209	-0.467194	-0.722825	0.702605	-3.464521	0.000000	0.000000	13.711753	-2.349821	5.800655	20.994325	-9.185693	53.921077	35.607369	88.663673	-2.957920	2.552701	19.923825	-11.144178	43.011044	51.936153	89.028229	-10.860259	1.597290
0.127273	-0.421194	-6.761744	95.848308	0.170749	0.973644	0.415566	-7.864296	-0.821763	2.378305	2.200778	0.038411	19.224193	-6.407329	0.000000	-5.572812	-0.546939	3.021983	4.117618	0.071866	26.410455	-1.764109	0.000000	-0.109975	0.053488	-0.498719	-0.204234	0.071139	-0.529889	-0.180677	0.130050	-0.529889	-0.125690	0.130050	-0.436379	-0.102123	0.109073	-0.405209	-0.062840	0.082853	-0.374039	-0.785538	0.605066	-2.773724	0.000000	0.000000	13.271628	-2.379297	5.833290	20.981759	-9.425486	54.117248	36.023030	88.757938	-3.144664	2.253667	20.116021	-11.238572	44.077344	51.875788	89.084703	-10.541018	0.696790
0.145455	-0.493090	-6.581385	95.030730	0.171973	0.974209	0.415005	-7.831610	-0.987849	2.576984	2.579925	0.045028	19.383781	-5.787727	0.000000	-6.076812	-0.347162	3.683875	3.571103	0.062327	25.747030	-3.771007	0.000000	-0.119105	0.047178	-0.361793	-0.221189	0.062746	-0.384405	-0.195677	0.114708	-0.384405	-0.136125	0.114708	-0.316568	-0.110601	0.096205	-0.293956	-0.068056	0.073078	-0.271344	-0.850753	0.533685	-2.012181	0.000000	0.000000	12.794983	-2.411110	5.881703	20.889016	-9.701284	54.190980	36.566590	88.844890	-3.288635	1.944988	20.336590	-11.363689	45.329746	51.859925	89.137535	-10.052006	-0.154316
0.163636	-0.550094	-6.384238	94.174402	0.173278	0.974768	0.414339	-7.777202	-1.147113	2.519885	3.052631	0.053278	19.651101	-4.789967	0.000000	-6.606650	-0.168258	4.169472	3.025713	0.052809	25.107191	-5.595840	0.000000	-0.128132	0.042832	-0.215046	-0.237954	0.056966	-0.228487	-0.210508	0.104141	-0.228487	-0.146442	0.104141	-0.188166	-0.118983	0.087342	-0.174725	-0.073215	0.066346	-0.161285	-0.915234	0.484521	-1.196024	0.000000	0.000000	12.297463	-2.439040	5.937159	20.713860	-10.000999	54.128607	37.231185	88.917637	-3.366835	1.630738	20.580898	-11.509271	46.725609	51.888746	89.185855	-9.418878	-0.951211
0.181818	-0.593427	-6.179038	93.294137	0.174636	0.975303	0.413603	-7.703755	-1.298687	2.264443	3.591495	0.062683	20.002004	-3.498850	0.000000	-7.145736	-0.008558	4.492441	2.495986	0.043563	24.505404	-7.236433	0.000000	-0.136604	0.040101	-0.061381	-0.253687	0.053335	-0.065217	-0.224426	0.097502	-0.065217	-0.156124	0.097502	-0.053708	-0.126850	0.081774	-0.049872	-0.078055	0.062117	-0.046036	-0.975747	0.453633	-0.341381	0.000000	0.000000	11.794711	-2.456867	5.990925	20.454054	-10.312545	53.916462	38.009953	88.969289	-3.356265	1.314993	20.844307	-11.665063	48.222286	51.962433	89.228792	-8.667291	-1.689076
0.200000	-0.635904	-5.992172	92.404961	0.175998	0.975774	0.412832	-7.618815	-1.453951	2.076598	4.125525	0.072004	20.330114	-2.274675	0.000000	-7.671557	0.161958	4.775466	1.961866	0.034241	23.983202	-8.805782	0.000000	-0.144437	0.036584	0.096356	-0.268234	0.048657	0.102378	-0.237296	0.088950	0.102378	-0.165077	0.088950	0.084312	-0.134124	0.074602	0.078289	-0.082531	0.056669	0.072267	-1.031700	0.413845	0.535904	0.000000	0.000000	11.354624	-2.391831	6.033750	19.984598	-10.545931	53.180805	38.938132	88.921088	-3.064809	1.055536	21.063923	-11.765652	49.592528	52.101336	89.240962	-7.658773	-2.199926
0.218182	-0.653888	-5.818495	91.554236	0.177321	0.976161	0.412076	-7.513935	-1.586843	1.657999	4.674939	0.081593	20.752422	-0.739044	0.000000	-8.139224	0.290495	4.830393	1.547928	0.027016	23.608472	-10.024947	0.000000	-0.148271	0.035718	0.254919	-0.275354	0.047505	0.270851	-0.243594	0.086845	0.270851	-0.169459	0.086845	0.223054	-0.137684	0.072837	0.207121	-0.084722	0.055328	0.191189	-1.059084	0.404052	1.417781	0.000000	0.000000	10.924896	-2.296308	6.050367	19.388908	-10.782095	52.202853	39.998443	88.814657	-2.744764	0.757082	21.342887	-11.870068	51.117629	52.258348	89.274179	-6.573667	-2.771729
0.236364	-0.652314	-5.664896	90.720474	0.178625	0.976459	0.411371	-7.394456	-1.706217	1.035919	5.206212	0.090866	21.246571	1.120975	0.000000	-8.541139	0.386061	4.597407	1.262412	0.022033	23.376771	-10.844723	0.000000	-0.148691	0.036962	0.412161	-0.276134	0.049159	0.437921	-0.244284	0.089869	0.437921	-0.169939	0.089869	0.360641	-0.138074	0.075372	0.334881	-0.084962	0.057254	0.309121	-1.062084	0.418119	2.292317	0.000000	0.000000	10.520606	-2.200544	6.049999	18.728275	-11.011328	51.080529	41.145131	88.688814	-2.257864	0.437852	21.634047	-11.969794	52.657261	52.469880	89.312683	-5.499679	-3.337382
0.254545	-0.637841	-5.534215	89.921663	0.179892	0.976654	0.410728	-7.288131	-1.797529	0.771192	5.652175	0.098649	21.629877	2.479088	0.000000	-8.899088	0.468565	4.312807	1.040595	0.018162	23.206225	-11.546032	0.000000	-0.146533	0.038627	0.563059	-0.272126	0.051374	0.598250	-0.240739	0.093919	0.598250	-0.167473	0.093919	0.492677	-0.136071	0.078769	0.457485	-0.083729	0.059834	0.422294	-1.046671	0.436961	3.131565	0.000000	0.000000	10.166273	-2.089148	5.977690	18.041104	-11.233387	49.959702	42.350319	88.540926	-1.634533	0.038292	21.938983	-12.057722	54.168158	52.735175	89.334563	-4.548579	-3.916845
0.272727	-0.616799	-5.435040	89.157563	0.181110	0.976744	0.410196	-7.175447	-1.878647	0.600578	6.032217	0.105282	21.974663	3.704419	0.000000	-9.196040	0.543194	3.947276	0.890712	0.015546	23.088187	-12.101207	0.000000	-0.142611	0.040250	0.704442	-0.264843	0.053532	0.748470	-0.234296	0.097864	0.748470	-0.162990	0.097864	0.616387	-0.132429	0.082078	0.572359	-0.081488	0.062347	0.528332	-1.018657	0.455315	3.917897	0.000000	0.000000	9.887875	-1.972418	5.866962	17.340797	-11.435754	48.868008	43.599810	88.375009	-0.795133	-0.382153	22.233635	-12.101918	55.506287	53.064149	89.334471	-3.753295	-4.434534
0.290909	-0.595596	-5.371762	88.450441	0.182279	0.976718	0.409798	-7.059578	-1.950311	0.538150	6.334662	0.110561	22.270176	4.748007	0.000000	-9.423772	0.611515	3.522306	0.808465	0.014110	23.019152	-12.508016	0.000000	-0.137708	0.040254	0.830031	-0.255737	0.053537	0.881908	-0.226240	0.097873	0.881908	-0.157386	0.097873	0.726277	-0.127875	0.082085	0.674400	-0.078686	0.062353	0.622523	-0.983633	0.455357	4.616385	0.000000	0.000000	9.702027	-1.848665	5.694859	16.655126	-11.606838	47.877439	44.882697	88.194155	0.306831	-0.725607	22.515836	-12.102272	56.607996	53.472974	89.307587	-3.184813	-4.828636
0.309091	-0.586426	-5.355461	87.813878	0.183343	0.976580	0.409535	-6.935148	-2.023703	0.553369	6.546985	0.114266	22.509049	5.629609	0.000000	-9.599171	0.695623	3.348322	0.715044	0.012480	22.843327	-13.192492	0.000000	-0.130835	0.037601	0.939957	-0.242973	0.050009	0.998705	-0.214948	0.091422	0.998705	-0.149531	0.091422	0.822463	-0.121493	0.076675	0.763715	-0.074759	0.058243	0.704968	-0.934539	0.425345	5.227760	0.000000	0.000000	9.625325	-1.703498	5.471019	15.957330	-11.742003	46.982462	46.162510	88.029256	1.598117	-1.078646	22.787086	-12.022870	57.435607	53.907670	89.264274	-2.851519	-5.100750
0.327273	-0.586250	-5.385276	87.270058	0.184300	0.976339	0.409455	-6.797436	-2.091972	0.547788	6.680068	0.116589	22.730118	6.453962	0.000000	-9.680259	0.771533	3.032794	0.688460	0.012016	22.723613	-13.575983	0.000000	-0.123582	0.032784	1.027152	-0.229504	0.043602	1.091349	-0.203033	0.079710	1.091349	-0.141242	0.079710	0.898758	-0.114758	0.066853	0.834561	-0.070615	0.050782	0.770364	-0.882734	0.370857	5.712710	0.000000	0.000000	9.672425	-1.558109	5.225823	15.302564	-11.820946	46.246272	47.408504	87.876664	3.116289	-1.229998	23.038238	-11.887402	57.967591	54.372586	89.199362	-2.822810	-5.216595
